<svg width="302" height="67" viewBox="0 0 302 67" fill="none" xmlns="http://www.w3.org/2000/svg">
<path d="M32.9773 66.3038C51.1901 66.3038 65.9545 51.4612 65.9545 33.1519C65.9545 14.8426 51.1901 0 32.9773 0C14.7644 0 0 14.8426 0 33.1519C0 51.4612 14.7644 66.3038 32.9773 66.3038Z" fill="#0A66C2"/>
<path d="M44.6418 44.8846H39.7468V37.1793C39.7468 35.3404 39.7081 32.9771 37.1962 32.9771C34.6456 32.9771 34.2527 34.9778 34.2527 37.0433V44.8846H29.3576V29.0338H34.0595V31.1964H34.1239C34.7809 29.9532 36.3782 28.6388 38.7613 28.6388C43.7208 28.6388 44.6354 31.9216 44.6354 36.1887L44.6418 44.8846ZM23.8378 26.8647C22.2598 26.8647 20.9974 25.5826 20.9974 24.0092C20.9974 22.4358 22.2662 21.1537 23.8378 21.1537C25.4094 21.1537 26.6782 22.4358 26.6782 24.0092C26.6782 25.5826 25.4029 26.8647 23.8378 26.8647ZM26.2918 44.8846H21.3838V29.0338H26.2918V44.8846ZM47.0894 16.5759H18.9299C17.5837 16.5759 16.4888 17.6443 16.4888 18.9717V47.3968C16.4888 48.7177 17.5773 49.7926 18.9299 49.7926H47.0829C48.4291 49.7926 49.5305 48.7242 49.5305 47.3968V18.9717C49.5305 17.6443 48.4291 16.5759 47.0894 16.5759Z" fill="white"/>
<path d="M109.388 66.3038C127.601 66.3038 142.366 51.4612 142.366 33.1519C142.366 14.8426 127.601 0 109.388 0C91.1756 0 76.4111 14.8426 76.4111 33.1519C76.4111 51.4612 91.1756 66.3038 109.388 66.3038Z" fill="#181717"/>
<path d="M109.382 16.9774C100.268 16.9774 92.8867 24.4042 92.8867 33.5598C92.8867 40.8895 97.6143 47.1055 104.165 49.2941C104.989 49.4495 105.292 48.9379 105.292 48.4976C105.292 48.1027 105.279 47.0602 105.273 45.681C100.687 46.6846 99.714 43.4536 99.714 43.4536C98.9605 41.537 97.8784 41.0255 97.8784 41.0255C96.3841 39.996 97.9943 40.0154 97.9943 40.0154C99.6496 40.132 100.519 41.7248 100.519 41.7248C101.988 44.263 104.384 43.5313 105.324 43.104C105.472 42.0291 105.897 41.2975 106.367 40.8831C102.703 40.4687 98.851 39.0442 98.851 32.6857C98.851 30.8727 99.4886 29.3964 100.551 28.2374C100.365 27.8165 99.8107 26.133 100.693 23.8474C100.693 23.8474 102.078 23.4006 105.227 25.5503C106.548 25.1812 107.952 24.9999 109.35 24.9934C110.754 24.9999 112.151 25.1812 113.472 25.5503C116.608 23.4071 117.987 23.8474 117.987 23.8474C118.876 26.133 118.315 27.8165 118.154 28.2374C119.204 29.3964 119.848 30.8792 119.848 32.6857C119.848 39.0571 115.99 40.4622 112.319 40.8701C112.899 41.3687 113.433 42.3852 113.433 43.9392C113.433 46.1602 113.414 47.9408 113.414 48.4782C113.414 48.912 113.704 49.43 114.547 49.2682C121.156 47.099 125.877 40.8831 125.877 33.5598C125.877 24.4042 118.489 16.9774 109.382 16.9774Z" fill="white"/>
<path d="M185.8 66.3038C204.012 66.3038 218.777 51.4612 218.777 33.1519C218.777 14.8426 204.012 0 185.8 0C167.587 0 152.822 14.8426 152.822 33.1519C152.822 51.4612 167.587 66.3038 185.8 66.3038Z" fill="#1DA1F2"/>
<path d="M202.932 22.9733C201.721 23.5107 200.427 23.8733 199.061 24.0417C200.452 23.1999 201.522 21.8726 202.024 20.2927C200.723 21.0567 199.274 21.6136 197.741 21.9244C196.511 20.6035 194.765 19.7747 192.82 19.7747C189.097 19.7747 186.076 22.8114 186.076 26.5475C186.076 27.0849 186.141 27.6029 186.25 28.095C180.647 27.8295 175.674 25.123 172.351 21.0308C171.765 22.028 171.436 23.1805 171.436 24.4431C171.436 26.8 172.628 28.872 174.438 30.0893C173.33 30.0505 172.293 29.7461 171.385 29.2411V29.3253C171.385 32.6146 173.703 35.3535 176.795 35.9751C176.228 36.1305 175.629 36.2082 175.017 36.2082C174.586 36.2082 174.174 36.1693 173.761 36.0916C174.624 38.7852 177.111 40.7471 180.073 40.7989C177.774 42.6184 174.85 43.6997 171.713 43.6997C171.179 43.6997 170.644 43.6673 170.109 43.6091C173.111 45.5321 176.647 46.6523 180.466 46.6523C192.865 46.6523 199.647 36.3247 199.647 27.3828C199.647 27.0979 199.647 26.8065 199.628 26.5151C200.942 25.5633 202.095 24.3654 202.996 23.0057L202.932 22.9733Z" fill="white"/>
<path d="M266.649 66.0836C285.627 66.0836 301.011 51.2903 301.011 33.0418C301.011 14.7933 285.627 0 266.649 0C247.672 0 232.288 14.7933 232.288 33.0418C232.288 51.2903 247.672 66.0836 266.649 66.0836Z" fill="#E4405F"/>
<path d="M266.649 16.521C261.984 16.521 261.4 16.5404 259.568 16.6178C257.736 16.7017 256.495 16.9792 255.401 17.3858C254.273 17.8052 253.313 18.3731 252.354 19.2895C251.394 20.2059 250.81 21.1288 250.374 22.2194C249.951 23.2713 249.663 24.4717 249.575 26.227C249.488 27.9888 249.475 28.5503 249.475 33.0354C249.475 37.5206 249.495 38.0821 249.575 39.8439C249.663 41.5992 249.951 42.7996 250.374 43.8515C250.81 44.9357 251.401 45.8585 252.354 46.7814C253.307 47.6977 254.266 48.2657 255.401 48.6851C256.495 49.0917 257.743 49.3692 259.568 49.4531C261.4 49.537 261.984 49.5499 266.649 49.5499C271.313 49.5499 271.897 49.5305 273.729 49.4531C275.554 49.3692 276.803 49.0917 277.897 48.6851C279.024 48.2657 279.984 47.6977 280.944 46.7814C281.897 45.865 282.487 44.9421 282.923 43.8515C283.346 42.7996 283.635 41.5992 283.722 39.8439C283.809 38.0821 283.823 37.5206 283.823 33.0354C283.823 28.5503 283.803 27.9888 283.722 26.227C283.635 24.4717 283.346 23.2713 282.923 22.2194C282.487 21.1352 281.897 20.2124 280.944 19.2895C279.991 18.3731 279.031 17.8052 277.897 17.3858C276.803 16.9792 275.554 16.7017 273.729 16.6178C271.897 16.5404 271.313 16.521 266.649 16.521ZM266.649 19.496C271.232 19.496 271.783 19.5154 273.595 19.5929C275.273 19.6703 276.179 19.9349 276.783 20.1672C277.588 20.4641 278.158 20.8255 278.762 21.3998C279.36 21.9806 279.736 22.5292 280.044 23.3036C280.279 23.8844 280.561 24.7556 280.635 26.369C280.715 28.1114 280.736 28.6342 280.736 33.0483C280.736 37.4625 280.715 37.9853 280.628 39.7277C280.541 41.3411 280.259 42.2123 280.024 42.7931C279.702 43.5675 279.34 44.1161 278.736 44.6969C278.138 45.2712 277.554 45.6326 276.763 45.9295C276.158 46.1554 275.239 46.4264 273.561 46.4974C271.736 46.5748 271.199 46.5942 266.602 46.5942C262.004 46.5942 261.468 46.5748 259.642 46.4909C257.964 46.407 257.045 46.136 256.441 45.9101C255.629 45.6004 255.065 45.2519 254.468 44.6711C253.864 44.0967 253.481 43.5352 253.179 42.7737C252.944 42.1929 252.662 41.3088 252.575 39.6954C252.508 37.9594 252.488 37.4238 252.488 33.029C252.488 28.6277 252.508 28.0921 252.575 26.3367C252.662 24.7234 252.938 23.8392 253.179 23.2584C253.481 22.4711 253.864 21.9355 254.468 21.3546C255.065 20.7803 255.629 20.406 256.441 20.1156C257.045 19.8897 257.944 19.6187 259.622 19.5348C261.447 19.4702 261.984 19.4509 266.582 19.4509L266.649 19.496ZM266.649 24.5556C261.776 24.5556 257.823 28.3567 257.823 33.0419C257.823 37.7271 261.776 41.5282 266.649 41.5282C271.521 41.5282 275.474 37.7271 275.474 33.0419C275.474 28.3567 271.521 24.5556 266.649 24.5556ZM266.649 38.5467C263.488 38.5467 260.924 36.0815 260.924 33.0419C260.924 30.0023 263.488 27.5371 266.649 27.5371C269.81 27.5371 272.373 30.0023 272.373 33.0419C272.373 36.0815 269.81 38.5467 266.649 38.5467ZM277.883 24.2264C277.883 25.3235 276.957 26.2077 275.823 26.2077C274.682 26.2077 273.763 25.3171 273.763 24.2264C273.763 23.1358 274.689 22.2452 275.823 22.2452C276.957 22.2388 277.883 23.1294 277.883 24.2264Z" fill="white"/>
</svg>
